<svg xmlns="http://www.w3.org/2000/svg" data-name="Layer 1" width="894.24907" height="448.2822" viewBox="0 0 894.24907 448.2822" xmlns:xlink="http://www.w3.org/1999/xlink"><path d="M447.36954,674.14111c0,26.88035-41.34536,48.68857-92.34358,48.68857s-92.34359-21.80822-92.34359-48.68857c0-5.27-3.05829-24.69957,4.91233-33.91139,12.97351-15.01214,34.36943,12.52,87.43126,12.52S447.36954,647.26075,447.36954,674.14111Z" transform="translate(-152.87546 -225.85889)" fill="#e6e6e6"/><path d="M355.02596,723.14111c51.00867,0,92.35403-21.80822,92.35403-48.68857,0-26.88036-41.34536-48.68858-92.35403-48.68858s-92.34359,21.80822-92.34359,48.68858C262.68237,701.33289,304.01728,723.14111,355.02596,723.14111Z" transform="translate(-152.87546 -225.85889)" fill="#e6e6e6"/><path d="M352.02596,674.14111c51.00867,0,92.35403-21.80822,92.35403-48.68857,0-26.88036-41.34536-48.68858-92.35403-48.68858s-92.34359,21.80822-92.34359,48.68858C259.68237,652.33289,301.01728,674.14111,352.02596,674.14111Z" transform="translate(-152.87546 -225.85889)" fill="#e6e6e6"/><path d="M986.24907,635.8489l-27.00043-21.04608a94.00933,94.00933,0,0,0-3.55451-126.2124l-.00089-.001a94.00933,94.00933,0,0,0-126.99478,3.06938L714.24907,596.8489a94.01036,94.01036,0,0,0-3.06849,126.99478l.00089.00089a94.01035,94.01035,0,0,0,126.2124,3.5536l27.00043-21.04608,122.85527,95.7995,122.85527-95.7995Z" transform="translate(-152.87546 -225.85889)" fill="#e6e6e6"/><path d="M862.24907,635.8489l-27.00043-21.04608a94.00933,94.00933,0,0,0-3.55451-126.2124l-.00089-.001a94.00933,94.00933,0,0,0-126.99478,3.06938L590.24907,596.8489a94.01036,94.01036,0,0,0-3.06849,126.99478l.00089.00089a94.01035,94.01035,0,0,0,126.2124,3.5536l27.00043-21.04608,122.85527,95.7995,122.85527-95.7995Z" transform="translate(-152.87546 -225.85889)" fill="#e6e6e6"/><path d="M738.24907,635.8489l-27.00043-21.04608a94.00933,94.00933,0,0,0-3.55451-126.2124l-.00089-.001a94.00933,94.00933,0,0,0-126.99478,3.06938L466.24907,596.8489a94.01036,94.01036,0,0,0-3.06849,126.99478l.00089.00089a94.01035,94.01035,0,0,0,126.2124,3.5536l27.00043-21.04608,122.85527,95.7995,122.85527-95.7995Z" transform="translate(-152.87546 -225.85889)" fill="#e6e6e6"/><path d="M738.24907,635.8489l-27.00043-21.04608a94.00933,94.00933,0,0,0-3.55451-126.2124l-.00089-.001a94.00933,94.00933,0,0,0-126.99478,3.06938L466.24907,596.8489a94.01036,94.01036,0,0,0-3.06849,126.99478l.00089.00089a94.01035,94.01035,0,0,0,126.2124,3.5536l27.00043-21.04608,122.85527,95.7995,122.85527-95.7995Z" transform="translate(-152.87546 -225.85889)" fill="#e6e6e6"/><path d="M738.24907,635.8489l-27.00043-21.04608a94.00933,94.00933,0,0,0-3.55451-126.2124l-.00089-.001a94.00933,94.00933,0,0,0-126.99478,3.06938L466.24907,596.8489a94.01036,94.01036,0,0,0-3.06849,126.99478l.00089.00089a94.01035,94.01035,0,0,0,126.2124,3.5536l27.00043-21.04608,122.85527,95.7995,122.85527-95.7995Z" transform="translate(-152.87546 -225.85889)" fill="#e6e6e6"/><circle cx="286.24907" cy="409.98999" r="44" fill="#3b82f6"/><polygon points="286.249 448.99 259.249 409.99 286.249 370.99 313.249 409.99 286.249 448.99" fill="#3b82f6"/><polygon points="286.249 448.99 259.249 409.99 286.249 370.99 286.249 448.99" opacity="0.2"/><circle cx="286.24907" cy="409.98999" r="44" fill="#3b82f6"/><polygon points="286.249 448.99 259.249 409.99 286.249 370.99 313.249 409.99 286.249 448.99" fill="#3b82f6"/><polygon points="286.249 448.99 259.249 409.99 286.249 370.99 286.249 448.99" opacity="0.2"/><rect x="413.87357" y="333.85889" width="2" height="143" fill="#3f3d56"/><rect x="288.87357" y="333.85889" width="2" height="143" fill="#3f3d56"/><rect x="168.87357" y="333.85889" width="2" height="143" fill="#3f3d56"/><polygon points="731.249 448.99 704.249 409.99 731.249 370.99 758.249 409.99 731.249 448.99" fill="#3b82f6"/><polygon points="731.249 448.99 704.249 409.99 731.249 370.99 731.249 448.99" opacity="0.2"/><polygon points="731.249 448.99 704.249 409.99 731.249 370.99 758.249 409.99 731.249 448.99" fill="#3b82f6"/><polygon points="731.249 448.99 704.249 409.99 731.249 370.99 731.249 448.99" opacity="0.2"/><polygon points="731.249 448.99 704.249 409.99 731.249 370.99 758.249 409.99 731.249 448.99" fill="#3b82f6"/><polygon points="731.249 448.99 704.249 409.99 731.249 370.99 731.249 448.99" opacity="0.2"/><polygon points="731.249 448.99 704.249 409.99 731.249 370.99 758.249 409.99 731.249 448.99" fill="#3b82f6"/><polygon points="731.249 448.99 704.249 409.99 731.249 370.99 731.249 448.99" opacity="0.2"/></svg>
